<svg width="109" height="25" viewBox="0 0 109 25" fill="none" xmlns="http://www.w3.org/2000/svg">
<g clip-path="url(#clip0)">
<path d="M6.95007 5.51909C8.04593 5.51451 9.12805 5.76306 10.1121 6.24534V9.41853C9.19329 8.75144 8.08547 8.39522 6.95007 8.40177C6.42696 8.40021 5.90879 8.50302 5.4259 8.70418C4.94301 8.90535 4.5051 9.20082 4.13782 9.57331C3.77053 9.94581 3.48124 10.3878 3.28689 10.8735C3.09253 11.3592 2.99702 11.8787 3.00594 12.4018C2.997 12.9243 3.09257 13.4433 3.28706 13.9284C3.48154 14.4134 3.77101 14.8547 4.13845 15.2263C4.50589 15.5979 4.9439 15.8924 5.42673 16.0923C5.90956 16.2922 6.42749 16.3937 6.95007 16.3906C8.08731 16.4093 9.19888 16.0519 10.1121 15.3738V18.5135C9.13615 19.0243 8.05158 19.2925 6.95007 19.2956C6.03205 19.3297 5.11682 19.1748 4.26117 18.8405C3.40552 18.5061 2.62772 17.9995 1.97604 17.352C1.32436 16.7045 0.812711 15.93 0.472847 15.0765C0.132983 14.223 -0.0278429 13.3088 0.000350435 12.3906C-0.0231702 11.4752 0.141112 10.5646 0.483063 9.71509C0.825015 8.86558 1.33738 8.09514 1.98857 7.45128C2.63975 6.80742 3.41595 6.3038 4.26927 5.97149C5.12259 5.63917 6.03495 5.48521 6.95007 5.51909ZM25.6316 12.3906C25.6316 14.2101 24.9089 15.955 23.6223 17.2416C22.3357 18.5281 20.5908 19.2509 18.7713 19.2509C16.9518 19.2509 15.2069 18.5281 13.9203 17.2416C12.6337 15.955 11.911 14.2101 11.911 12.3906C11.888 11.4829 12.0497 10.58 12.3862 9.73668C12.7227 8.89335 13.227 8.12716 13.8685 7.4846C14.51 6.84204 15.2754 6.33649 16.1182 5.99862C16.9609 5.66075 17.8636 5.49761 18.7713 5.51909C19.6769 5.50549 20.576 5.67402 21.4152 6.01467C22.2545 6.35532 23.0167 6.86115 23.6566 7.50211C24.2965 8.14307 24.8011 8.90609 25.1404 9.74585C25.4796 10.5856 25.6467 11.485 25.6316 12.3906ZM22.6372 12.3906C22.6372 11.8814 22.5369 11.3773 22.3421 10.9069C22.1473 10.4365 21.8617 10.0091 21.5016 9.64908C21.1416 9.28905 20.7142 9.00347 20.2438 8.80863C19.7734 8.61378 19.2693 8.5135 18.7601 8.5135C18.251 8.5135 17.7468 8.61378 17.2764 8.80863C16.806 9.00347 16.3786 9.28905 16.0186 9.64908C15.6586 10.0091 15.373 10.4365 15.1782 10.9069C14.9833 11.3773 14.883 11.8814 14.883 12.3906C14.883 12.8997 14.9833 13.4039 15.1782 13.8743C15.373 14.3447 15.6586 14.7721 16.0186 15.1321C16.3786 15.4921 16.806 15.7777 17.2764 15.9726C17.7468 16.1674 18.251 16.2677 18.7601 16.2677C19.2693 16.2677 19.7734 16.1674 20.2438 15.9726C20.7142 15.7777 21.1416 15.4921 21.5016 15.1321C21.8617 14.7721 22.1473 14.3447 22.3421 13.8743C22.5369 13.4039 22.6372 12.8997 22.6372 12.3906ZM38.3244 0.47998H41.2406V18.9828H38.3244V16.8375C37.8408 17.5994 37.1698 18.2245 36.3755 18.6529C35.5813 19.0813 34.6904 19.2988 33.7881 19.2845C30.0339 19.2845 27.3747 16.2453 27.3747 12.3906C27.3747 8.53585 30.0339 5.51909 33.8104 5.51909C34.6993 5.50736 35.5764 5.7229 36.3585 6.14527C37.1407 6.56764 37.802 7.18283 38.2797 7.9325L38.3244 0.47998ZM38.3244 12.3906C38.3156 11.6125 38.0768 10.8544 37.6381 10.2117C37.1993 9.56896 36.5803 9.07039 35.8589 8.77871C35.1375 8.48703 34.3459 8.41527 33.5837 8.57247C32.8216 8.72966 32.123 9.10879 31.5759 9.66212C31.0288 10.2155 30.6575 10.9183 30.5089 11.6821C30.3603 12.446 30.441 13.2367 30.7408 13.9548C31.0406 14.6729 31.5461 15.2863 32.1937 15.7177C32.8413 16.1491 33.6021 16.3794 34.3802 16.3794C34.9033 16.384 35.4219 16.2836 35.9054 16.0842C36.3889 15.8848 36.8276 15.5905 37.1953 15.2186C37.563 14.8466 37.8525 14.4047 38.0464 13.919C38.2403 13.4332 38.3349 12.9135 38.3244 12.3906ZM56.7154 11.8766C56.7167 12.3818 56.6529 12.885 56.5255 13.3738H46.7937C46.9444 14.315 47.4394 15.1666 48.1827 15.7633C48.926 16.36 49.8645 16.6592 50.816 16.6029C52.4632 16.5809 54.0677 16.0759 55.4305 15.1504V18.0777C53.9481 18.8779 52.2883 19.2929 50.6037 19.2845C49.6971 19.3083 48.7952 19.1453 47.9542 18.8059C47.1132 18.4664 46.3509 17.9575 45.7149 17.311C45.0788 16.6645 44.5825 15.894 44.2568 15.0476C43.9311 14.2011 43.783 13.2967 43.8216 12.3906C43.7854 11.5002 43.9298 10.6117 44.2461 9.77856C44.5624 8.94544 45.0441 8.18497 45.6621 7.54295C46.2801 6.90093 47.0217 6.39064 47.8421 6.04282C48.6626 5.695 49.545 5.51684 50.4361 5.51909C51.2729 5.4987 52.1051 5.64981 52.8813 5.96311C53.6576 6.27641 54.3615 6.74527 54.9497 7.34083C55.5379 7.93638 55.9981 8.64604 56.3017 9.4261C56.6054 10.2062 56.7462 11.0401 56.7154 11.8766ZM53.8774 11.0945C53.8605 10.6609 53.7567 10.2351 53.5722 9.84243C53.3876 9.44973 53.126 9.09809 52.803 8.80839C52.4799 8.51869 52.102 8.29683 51.6916 8.15597C51.2812 8.0151 50.8466 7.95811 50.4138 7.98836C49.5281 7.95654 48.6627 8.25789 47.9884 8.83294C47.314 9.40799 46.8798 10.2149 46.7713 11.0945H53.8774ZM78.9948 12.3906C78.9948 16.2453 76.3132 19.2845 72.5925 19.2845C71.6983 19.3048 70.8146 19.0893 70.03 18.6598C69.2455 18.2303 68.5879 17.6018 68.1233 16.8375V24.48H65.14V5.78724H68.0897V8.10009C68.5202 7.29621 69.1668 6.6286 69.9565 6.17255C70.7462 5.71651 71.6476 5.49018 72.559 5.51909C76.3132 5.51909 78.9948 8.50233 78.9948 12.3906ZM75.9445 12.3906C76.0032 11.8419 75.9459 11.287 75.7761 10.762C75.6063 10.237 75.328 9.75352 74.9592 9.3431C74.5903 8.93267 74.1393 8.60445 73.6353 8.37977C73.1313 8.15509 72.5857 8.03898 72.0339 8.03898C71.4821 8.03898 70.9364 8.15509 70.4325 8.37977C69.9285 8.60445 69.4774 8.93267 69.1086 9.3431C68.7397 9.75352 68.4614 10.237 68.2916 10.762C68.1219 11.287 68.0645 11.8419 68.1233 12.3906C68.0645 12.9393 68.1219 13.4941 68.2916 14.0192C68.4614 14.5442 68.7397 15.0277 69.1086 15.4381C69.4774 15.8485 69.9285 16.1767 70.4325 16.4014C70.9364 16.6261 71.4821 16.7422 72.0339 16.7422C72.5857 16.7422 73.1313 16.6261 73.6353 16.4014C74.1393 16.1767 74.5903 15.8485 74.9592 15.4381C75.328 15.0277 75.6063 14.5442 75.7761 14.0192C75.9459 13.4941 76.0032 12.9393 75.9445 12.3906ZM94.5032 12.3906C94.5405 13.3155 94.3905 14.2385 94.0623 15.1041C93.7341 15.9696 93.2343 16.7599 92.5931 17.4276C91.9519 18.0952 91.1823 18.6264 90.3307 18.9892C89.4791 19.3521 88.5629 19.5391 87.6372 19.5391C86.7115 19.5391 85.7954 19.3521 84.9437 18.9892C84.0921 18.6264 83.3226 18.0952 82.6814 17.4276C82.0401 16.7599 81.5404 15.9696 81.2122 15.1041C80.8839 14.2385 80.734 13.3155 80.7713 12.3906C80.734 11.4656 80.8839 10.5427 81.2122 9.67714C81.5404 8.81158 82.0401 8.02126 82.6814 7.35363C83.3226 6.68599 84.0921 6.15481 84.9437 5.79195C85.7954 5.4291 86.7115 5.24206 87.6372 5.24206C88.5629 5.24206 89.4791 5.4291 90.3307 5.79195C91.1823 6.15481 91.9519 6.68599 92.5931 7.35363C93.2343 8.02126 93.7341 8.81158 94.0623 9.67714C94.3905 10.5427 94.5405 11.4656 94.5032 12.3906ZM91.4976 12.3906C91.4976 11.3623 91.0891 10.3762 90.362 9.64908C89.6349 8.92198 88.6487 8.5135 87.6205 8.5135C86.5922 8.5135 85.606 8.92198 84.8789 9.64908C84.1518 10.3762 83.7434 11.3623 83.7434 12.3906C83.7434 13.4189 84.1518 14.405 84.8789 15.1321C85.606 15.8592 86.5922 16.2677 87.6205 16.2677C88.6487 16.2677 89.6349 15.8592 90.362 15.1321C91.0891 14.405 91.4976 13.4189 91.4976 12.3906ZM100.771 2.06657L97.9892 2.71462V5.78724H95.5981V8.30121H97.8328V18.9716H100.782V8.30121H103.174V5.78724H100.771V2.06657ZM105.352 15.3068L104.525 22.2789H107.263L108.648 15.3068H105.352Z" fill="white"/>
</g>
<defs>
<clipPath id="clip0">
<rect width="108.626" height="24" fill="white" transform="translate(0 0.47998)"/>
</clipPath>
</defs>
</svg>
